<svg width="1404" height="128" viewBox="0 0 1404 128" fill="none" xmlns="http://www.w3.org/2000/svg">
<path d="M0.0159073 3.08709L59.2498 3.0871C85.9099 3.0871 102.213 18.1407 102.213 41.7873L102.213 86.2161C102.213 109.863 85.9418 124.916 59.2498 124.916L0.015902 124.916L0.0159073 3.08709ZM58.0671 85.8342C64.3325 85.8342 68.0726 82.7789 68.0726 77.2412L68.0726 50.9213C68.0726 45.1926 64.3325 42.1374 58.0671 42.1374L34.1562 42.1374L34.1562 85.8342L58.0671 85.8342Z" fill="white"/>
<path d="M115.319 3.08709L212.018 3.0871L212.018 38.923L149.076 38.923L149.076 46.0838L212.018 46.0838L212.018 80.6466L149.076 80.6466L149.076 88.1575L212.018 88.1575L212.018 124.884L115.319 124.884L115.319 3.08709Z" fill="white"/>
<path d="M225.731 3.08709L290.048 3.0871C315.557 3.0871 331.444 17.2496 331.444 40.3551L331.444 52.5444C331.444 75.459 315.557 89.6215 290.048 89.6215L259.839 89.6215L259.839 124.916L225.699 124.916L225.699 3.08709L225.731 3.08709ZM290.08 54.4858C294.587 54.4858 297.336 52.3216 297.336 48.5662L297.336 46.402C297.336 42.6466 294.587 40.6734 290.08 40.6734L259.871 40.6734L259.871 54.454L290.08 54.454L290.08 54.4858Z" fill="white"/>
<path d="M371.275 3.08709L397.551 3.0871L440.706 124.884L404.999 124.884L401.259 113.077L367.343 113.077L363.826 124.884L328.12 124.884L371.275 3.08709ZM391.062 79.5645L384.381 57.7002L377.7 79.5645L391.03 79.5645L391.062 79.5645Z" fill="white"/>
<path d="M453.296 3.08709L524.102 3.0871C544.688 3.0871 556.867 14.3853 556.867 33.1943L556.867 54.1675C556.867 66.1658 551.369 74.7588 540.213 79.2462L563.356 124.757L526.691 124.757L506.68 84.4657L487.468 84.4657L487.468 124.948L453.328 124.948L453.328 3.08709L453.296 3.08709ZM517.644 51.4623C522.343 51.4623 524.102 49.4891 524.102 46.4338L524.102 44.6516C524.102 41.5963 522.343 39.8141 517.644 39.8141L487.436 39.8141L487.436 51.4623L517.644 51.4623Z" fill="white"/>
<path d="M701.675 127.844C628.92 127.844 571.923 99.774 571.923 63.9063C571.923 28.0386 628.92 5.21833e-05 701.675 5.53635e-05C774.431 5.85438e-05 831.427 28.0704 831.427 63.9381C831.427 99.8058 774.431 127.876 701.675 127.876L701.675 127.844ZM701.675 12.0939C637.934 12.0939 584.071 35.8359 584.071 63.9381C584.071 92.0403 637.934 115.782 701.675 115.782C765.417 115.782 819.28 92.0403 819.28 63.9381C819.28 35.8359 765.417 12.0939 701.675 12.0939Z" fill="white"/>
<path d="M701.675 127.844C663.188 127.844 631.893 99.1693 631.893 63.9063C631.893 28.6433 663.22 5.63039e-05 701.675 5.79849e-05C740.131 5.96658e-05 771.458 28.6751 771.458 63.9381C771.458 99.2011 740.163 127.876 701.675 127.876L701.675 127.844ZM701.675 12.0939C669.901 12.0939 644.04 35.3585 644.04 63.9381C644.04 92.5177 669.901 115.782 701.675 115.782C733.45 115.782 759.311 92.5177 759.311 63.9381C759.311 35.3585 733.45 12.0939 701.675 12.0939Z" fill="white"/>
<path d="M823.66 69.985L823.66 57.8912L579.723 57.8912L579.723 69.985L823.66 69.985Z" fill="white"/>
<path d="M810.362 41.0554L810.362 28.9615L593.021 28.9615L593.021 41.0553L810.362 41.0554Z" fill="white"/>
<path d="M707.749 121.797L707.749 6.04694L695.602 6.04694L695.602 121.797L707.749 121.797Z" fill="white"/>
<path d="M810.362 98.8829L810.362 86.7891L593.021 86.7891L593.021 98.8829L810.362 98.8829Z" fill="white"/>
<path d="M874.701 42.1374L841.36 42.1374L841.36 3.08709L941.958 3.0871L941.958 42.1374L908.809 42.1374L908.809 124.884L874.669 124.884L874.669 42.1374L874.701 42.1374Z" fill="white"/>
<path d="M954.138 86.7572L954.138 3.08715L988.246 3.08716L988.246 77.7823C988.246 83.32 991.986 86.3753 998.06 86.3753L1014.71 86.3753C1020.79 86.3753 1024.53 83.32 1024.53 77.7823L1024.53 3.08716L1058.67 3.08716L1058.67 86.7572C1058.67 110.404 1042.4 125.457 1015.93 125.457L997.101 125.457C970.441 125.457 954.138 110.404 954.138 86.7572Z" fill="white"/>
<path d="M1070.38 3.08715L1141.19 3.08716C1161.77 3.08716 1173.95 14.3853 1173.95 33.1944L1173.95 54.1676C1173.95 66.1659 1168.45 74.7589 1157.3 79.2463L1180.44 124.757L1143.78 124.757L1123.77 84.4657L1104.55 84.4657L1104.55 124.948L1070.41 124.948L1070.41 3.08715L1070.38 3.08715ZM1134.73 51.4624C1139.43 51.4624 1141.19 49.4892 1141.19 46.4339L1141.19 44.6517C1141.19 41.5964 1139.43 39.8141 1134.73 39.8141L1104.52 39.8141L1104.52 51.4624L1134.73 51.4624Z" fill="white"/>
<path d="M1189.42 3.08715L1286.12 3.08716L1286.12 38.923L1223.18 38.923L1223.18 46.0838L1286.12 46.0838L1286.12 80.6467L1223.18 80.6466L1223.18 88.1575L1286.12 88.1575L1286.12 124.885L1189.42 124.885L1189.42 3.08715Z" fill="white"/>
<path d="M1298.08 88.6986L1298.08 83.511L1330.62 83.511L1330.62 84.9431C1330.62 88.1575 1333.18 90.1307 1337.88 90.1307L1365.91 90.1307C1369.84 90.1307 1371.99 88.3485 1371.99 85.6433L1371.99 83.32C1371.99 80.6148 1369.81 78.8326 1365.91 78.8326L1338.64 78.8326C1313.14 78.8326 1298.24 66.1022 1298.24 43.8878L1298.24 37.6181C1298.24 15.5947 1313.14 2.51428 1338.64 2.51428L1363.35 2.51428C1387.9 2.54611 1403.6 15.9766 1403.6 36.7589L1403.6 42.4875L1371.25 42.4875L1371.25 41.5964C1371.25 38.5411 1368.5 36.7589 1363.8 36.7589L1335.77 36.7589C1332.03 36.7589 1329.89 38.382 1329.89 40.8644L1329.89 42.8376C1329.89 45.5109 1332.06 47.325 1335.77 47.325L1362.04 47.325C1389.09 47.325 1403.98 60.5964 1403.98 82.9699L1403.98 89.4306C1403.98 112.186 1388.67 125.426 1362.01 125.426L1341.62 125.426C1312.78 125.426 1298.08 111.995 1298.08 88.6986Z" fill="white"/>
</svg>
